<svg width="160" height="152" viewBox="0 0 160 152" fill="none" xmlns="http://www.w3.org/2000/svg">
	<path d="M152 80C152 70.5448 150.138 61.1822 146.519 52.4468C142.901 43.7114 137.598 35.7741 130.912 29.0883C124.226 22.4025 116.289 17.099 107.553 13.4807C98.8178 9.86234 89.4552 8 80 8C70.5448 7.99999 61.1823 9.86232 52.4468 13.4807C43.7114 17.099 35.7742 22.4025 29.0883 29.0883C22.4025 35.7741 17.099 43.7113 13.4807 52.4468C9.86234 61.1822 8 70.5448 8 80" stroke="#F2F4F7" stroke-width="16" stroke-linecap="round" stroke-linejoin="round"/>
	<path d="M8 80C8 64.4833 13.0127 49.3818 22.2915 36.9451C31.5702 24.5084 44.6184 15.4019 59.4923 10.9824C74.3663 6.56276 90.27 7.06651 104.834 12.4186C119.399 17.7706 131.845 27.6846 140.318 40.6836" stroke="#039855" stroke-width="16" stroke-linecap="round" stroke-linejoin="round"/>
</svg>
