<svg width="24" height="25" viewBox="0 0 24 25" fill="none" xmlns="http://www.w3.org/2000/svg">
<path fill-rule="evenodd" clip-rule="evenodd" d="M7.498 1.80695C8.98613 1.563 10.492 1.44359 12 1.44995C13.828 1.44995 15.339 1.61095 16.502 1.80695L16.637 1.82995C17.647 1.99895 18.487 2.13995 19.143 2.94795C19.564 3.46695 19.7 4.02795 19.731 4.65295L20.223 4.81695C20.686 4.97095 21.093 5.10695 21.414 5.25695C21.762 5.41895 22.081 5.62695 22.325 5.96595C22.569 6.30395 22.666 6.67295 22.71 7.05395C22.75 7.40695 22.75 7.83395 22.75 8.32395V8.46795C22.75 8.86995 22.75 9.22495 22.72 9.52195C22.688 9.84295 22.617 10.1559 22.44 10.4579C22.261 10.7609 22.022 10.9749 21.757 11.1589C21.512 11.3289 21.202 11.5019 20.85 11.6969L18.21 13.1639C17.67 14.2249 16.93 15.1709 15.91 15.8539C15.035 16.4409 13.988 16.8129 12.75 16.9189V18.9499H14.18C14.5846 18.95 14.9767 19.0902 15.2895 19.3467C15.6024 19.6032 15.8167 19.9602 15.896 20.3569L16.115 21.4499H18C18.1989 21.4499 18.3897 21.529 18.5303 21.6696C18.671 21.8103 18.75 22.001 18.75 22.1999C18.75 22.3989 18.671 22.5896 18.5303 22.7303C18.3897 22.8709 18.1989 22.9499 18 22.9499H6C5.80109 22.9499 5.61032 22.8709 5.46967 22.7303C5.32902 22.5896 5.25 22.3989 5.25 22.1999C5.25 22.001 5.32902 21.8103 5.46967 21.6696C5.61032 21.529 5.80109 21.4499 6 21.4499H7.885L8.104 20.3569C8.1833 19.9602 8.39761 19.6032 8.71047 19.3467C9.02334 19.0902 9.41542 18.95 9.82 18.9499H11.25V16.9189C10.012 16.8129 8.965 16.4409 8.09 15.8549C7.071 15.1709 6.33 14.2249 5.79 13.1639L3.15 11.6969C2.83935 11.532 2.53668 11.3525 2.243 11.1589C1.96643 10.9792 1.73343 10.7401 1.561 10.4589C1.39858 10.1715 1.30256 9.85134 1.28 9.52195C1.25 9.22495 1.25 8.86995 1.25 8.46795V8.32295C1.25 7.83495 1.25 7.40695 1.29 7.05395C1.334 6.67295 1.43 6.30395 1.675 5.96595C1.919 5.62695 2.238 5.41895 2.585 5.25595C2.908 5.10595 3.314 4.97095 3.777 4.81695L4.269 4.65295C4.3 4.02695 4.436 3.46695 4.857 2.94795C5.514 2.13895 6.353 1.99795 7.364 1.82995L7.498 1.80695ZM9.415 21.4499H14.585L14.425 20.6509C14.4137 20.5943 14.3831 20.5433 14.3384 20.5067C14.2938 20.47 14.2378 20.45 14.18 20.4499H9.82C9.76223 20.45 9.70625 20.47 9.66158 20.5067C9.61692 20.5433 9.58632 20.5943 9.575 20.6509L9.415 21.4499ZM4.302 6.22295L4.288 6.22795C3.778 6.39795 3.454 6.50795 3.218 6.61695C3.001 6.71695 2.931 6.78795 2.892 6.84295C2.852 6.89695 2.808 6.98595 2.781 7.22395C2.751 7.48195 2.75 7.82395 2.75 8.36195V8.43495C2.75 8.87995 2.75 9.15895 2.772 9.37295C2.792 9.56895 2.824 9.64795 2.854 9.69795C2.883 9.74795 2.936 9.81395 3.098 9.92695C3.274 10.0489 3.518 10.1849 3.908 10.4019L4.973 10.9939C4.545 9.42395 4.373 7.74395 4.303 6.22395L4.302 6.22295ZM19.027 10.9929C19.455 9.42295 19.627 7.74295 19.698 6.22295L19.712 6.22795C20.222 6.39795 20.546 6.50795 20.782 6.61695C20.999 6.71695 21.069 6.78795 21.108 6.84295C21.148 6.89695 21.192 6.98595 21.219 7.22395C21.249 7.48195 21.25 7.82395 21.25 8.36195V8.43495C21.25 8.87995 21.25 9.15895 21.228 9.37295C21.208 9.56895 21.176 9.64795 21.146 9.69795C21.117 9.74795 21.064 9.81395 20.902 9.92695C20.725 10.0489 20.482 10.1849 20.092 10.4019L19.027 10.9929ZM12 2.94995C10.26 2.94995 8.833 3.10295 7.748 3.28595C6.541 3.48995 6.288 3.56595 6.022 3.89395C5.76 4.21595 5.735 4.52195 5.788 5.87695C5.878 8.13495 6.176 10.5729 7.098 12.4269C7.554 13.3409 8.15 14.0889 8.926 14.6089C9.696 15.1259 10.691 15.4499 12 15.4499C13.31 15.4499 14.304 15.1259 15.075 14.6089C15.851 14.0889 16.446 13.3409 16.901 12.4259C17.824 10.5729 18.122 8.13595 18.211 5.87595C18.266 4.52195 18.241 4.21595 17.979 3.89395C17.713 3.56595 17.459 3.48995 16.252 3.28595C14.8465 3.05599 13.4242 2.9436 12 2.94995Z" fill="#D0D5DD"/>
</svg>
