<svg width="160" height="152" viewBox="0 0 160 152" fill="none" xmlns="http://www.w3.org/2000/svg">
	<path d="M152 80C152 70.5448 150.138 61.1822 146.519 52.4468C142.901 43.7114 137.598 35.7741 130.912 29.0883C124.226 22.4025 116.289 17.099 107.553 13.4807C98.8178 9.86234 89.4552 8 80 8C70.5448 7.99999 61.1823 9.86232 52.4468 13.4807C43.7114 17.099 35.7742 22.4025 29.0883 29.0883C22.4025 35.7741 17.099 43.7113 13.4807 52.4468C9.86234 61.1822 8 70.5448 8 80" stroke="#F2F4F7" stroke-width="16" stroke-linecap="round" stroke-linejoin="round"/>
	<path d="M8 80C8 68.569 10.7217 57.3023 15.94 47.1319C21.1582 36.9615 28.723 28.1797 38.0087 21.513C47.2943 14.8463 58.0338 10.4863 69.3387 8.7937C80.6437 7.10108 92.1892 8.12448 103.02 11.7792" stroke="#7F56D9" stroke-width="16" stroke-linecap="round" stroke-linejoin="round"/>
</svg>
