<svg width="24" height="25" viewBox="0 0 24 25" fill="none" xmlns="http://www.w3.org/2000/svg">
<path d="M16 21.7998V19.7998C16 18.7389 15.5786 17.7215 14.8284 16.9714C14.0783 16.2212 13.0609 15.7998 12 15.7998H5C3.93913 15.7998 2.92172 16.2212 2.17157 16.9714C1.42143 17.7215 1 18.7389 1 19.7998V21.7998M20 8.7998V14.7998M23 11.7998H17M12.5 7.7998C12.5 10.0089 10.7091 11.7998 8.5 11.7998C6.29086 11.7998 4.5 10.0089 4.5 7.7998C4.5 5.59067 6.29086 3.7998 8.5 3.7998C10.7091 3.7998 12.5 5.59067 12.5 7.7998Z" stroke="#D0D5DD" stroke-width="2" stroke-linecap="round" stroke-linejoin="round"/>
</svg>
